<svg width="379" height="86" viewBox="0 0 379 86" fill="none" xmlns="http://www.w3.org/2000/svg">
<path d="M23.36 51.624L30.912 51.56C30.8693 51.9013 30.8267 52.52 30.784 53.416C30.7413 54.312 30.6987 54.9307 30.656 55.272C30.656 55.5707 30.6133 56.0613 30.528 56.744C30.4427 57.4267 30.336 57.9387 30.208 58.28C30.1227 58.5787 29.9947 58.984 29.824 59.496C29.056 61.7147 26.9653 63.464 23.552 64.744C21.376 65.512 19.0933 65.896 16.704 65.896C14.3573 65.896 12.224 65.512 10.304 64.744C8.384 63.976 6.86933 62.9947 5.76 61.8C3.24267 59.1547 1.984 54.2053 1.984 46.952C1.984 39.656 3.24267 34.6853 5.76 32.04C6.86933 30.8453 8.384 29.864 10.304 29.096C12.224 28.328 14.3573 27.944 16.704 27.944C21.312 27.944 24.8107 29.096 27.2 31.4C29.5893 33.704 30.784 36.904 30.784 41H23.232C23.232 39.1227 22.7627 37.736 21.824 36.84C20.8853 35.9013 19.136 35.432 16.576 35.432C14.0587 35.432 12.3733 36.2213 11.52 37.8C10.7093 39.3787 10.304 41.7467 10.304 44.904V48.232C10.304 53.3093 11.2853 56.424 13.248 57.576C14.144 58.1307 15.3173 58.408 16.768 58.408C18.2187 58.408 19.392 58.28 20.288 58.024C21.2267 57.7253 21.888 57.2347 22.272 56.552C22.6987 55.8693 22.976 55.208 23.104 54.568C23.232 53.8853 23.3173 52.904 23.36 51.624ZM65.1875 65H58.9795L57.0595 60.648L46.8195 65.384C43.9608 65.384 41.4648 64.3387 39.3315 62.248C37.2408 60.1147 36.1955 57.0213 36.1955 52.968V28.456H44.5155V51.176C44.5155 55.2293 46.1368 57.256 49.3795 57.256L56.8675 53.224V28.456H65.1875V65ZM93.939 28.584L91.635 36.776C90.995 36.52 90.2697 36.392 89.459 36.392C87.3257 36.392 84.7017 37.3093 81.587 39.144V65H73.267V28.456H79.475L81.395 31.656L90.227 28.008C90.6537 27.9653 91.2297 27.944 91.955 27.944C92.6803 27.944 93.3417 28.1573 93.939 28.584ZM103.709 14.504C105.714 14.504 107.015 14.824 107.613 15.464C108.21 16.0613 108.509 17.3627 108.509 19.368C108.509 21.3307 108.189 22.632 107.549 23.272C106.951 23.8693 105.65 24.168 103.645 24.168C101.682 24.168 100.381 23.848 99.7405 23.208C99.1432 22.568 98.8445 21.2667 98.8445 19.304C98.8445 17.3413 99.1432 16.0613 99.7405 15.464C100.381 14.824 101.703 14.504 103.709 14.504ZM107.805 65H99.4845V29.8H107.805V65ZM136.886 48.488V45.16C136.886 42.0027 136.416 39.592 135.478 37.928C134.582 36.264 132.683 35.432 129.782 35.432C125.088 35.432 122.742 38.5893 122.742 44.904V48.232C122.742 55.016 125.088 58.408 129.782 58.408C132.811 58.408 134.795 57.2773 135.734 55.016C136.502 53.224 136.886 51.048 136.886 48.488ZM145.206 46.568C145.206 54.4613 143.712 59.752 140.726 62.44C138.208 64.744 134.56 65.896 129.782 65.896C123.68 65.896 119.563 64.104 117.43 60.52C115.424 57.2347 114.422 52.584 114.422 46.568C114.422 40.936 115.424 36.52 117.43 33.32C119.648 29.736 123.68 27.944 129.526 27.944C135.414 27.944 139.488 29.5227 141.75 32.68C144.054 35.7947 145.206 40.424 145.206 46.568ZM176.948 54.888V55.848C176.692 59.048 175.326 61.4587 172.852 63.08C170.42 64.7013 167.369 65.512 163.7 65.512C158.281 65.512 154.484 64.5307 152.308 62.568C150.302 60.776 149.299 58.1307 149.299 54.632V53.864H156.852C156.852 55.8267 157.364 57.1707 158.388 57.896C159.412 58.6213 161.182 58.984 163.7 58.984C167.113 58.984 168.82 57.7467 168.82 55.272C168.82 53.224 168.222 51.8587 167.028 51.176C166.473 50.8347 165.769 50.5787 164.916 50.408L158.452 49.32C152.82 48.424 150.004 44.904 150.004 38.76C150.004 35.3467 151.241 32.7013 153.716 30.824C156.233 28.904 159.412 27.944 163.252 27.944C171.998 27.944 176.372 31.72 176.372 39.272V40.104H169.14C169.054 38.0987 168.521 36.7333 167.54 36.008C166.558 35.2827 165.172 34.92 163.38 34.92C161.63 34.92 160.308 35.2827 159.412 36.008C158.516 36.6907 158.068 37.4587 158.068 38.312C158.068 40.744 159.049 42.1307 161.012 42.472L168.756 43.88C174.217 44.904 176.948 48.5733 176.948 54.888ZM202.61 51.624L210.162 51.56C210.119 51.9013 210.077 52.52 210.034 53.416C209.991 54.312 209.949 54.9307 209.906 55.272C209.906 55.5707 209.863 56.0613 209.778 56.744C209.693 57.4267 209.586 57.9387 209.458 58.28C209.373 58.5787 209.245 58.984 209.074 59.496C208.306 61.7147 206.215 63.464 202.802 64.744C200.626 65.512 198.343 65.896 195.954 65.896C193.607 65.896 191.474 65.512 189.554 64.744C187.634 63.976 186.119 62.9947 185.01 61.8C182.493 59.1547 181.234 54.2053 181.234 46.952C181.234 39.656 182.493 34.6853 185.01 32.04C186.119 30.8453 187.634 29.864 189.554 29.096C191.474 28.328 193.607 27.944 195.954 27.944C200.562 27.944 204.061 29.096 206.45 31.4C208.839 33.704 210.034 36.904 210.034 41H202.482C202.482 39.1227 202.013 37.736 201.074 36.84C200.135 35.9013 198.386 35.432 195.826 35.432C193.309 35.432 191.623 36.2213 190.77 37.8C189.959 39.3787 189.554 41.7467 189.554 44.904V48.232C189.554 53.3093 190.535 56.424 192.498 57.576C193.394 58.1307 194.567 58.408 196.018 58.408C197.469 58.408 198.642 58.28 199.538 58.024C200.477 57.7253 201.138 57.2347 201.522 56.552C201.949 55.8693 202.226 55.208 202.354 54.568C202.482 53.8853 202.567 52.904 202.61 51.624ZM236.502 28.584L234.198 36.776C233.558 36.52 232.832 36.392 232.022 36.392C229.888 36.392 227.264 37.3093 224.15 39.144V65H215.83V28.456H222.038L223.958 31.656L232.79 28.008C233.216 27.9653 233.792 27.944 234.518 27.944C235.243 27.944 235.904 28.1573 236.502 28.584ZM246.271 14.504C248.276 14.504 249.578 14.824 250.175 15.464C250.772 16.0613 251.071 17.3627 251.071 19.368C251.071 21.3307 250.751 22.632 250.111 23.272C249.514 23.8693 248.212 24.168 246.207 24.168C244.244 24.168 242.943 23.848 242.303 23.208C241.706 22.568 241.407 21.2667 241.407 19.304C241.407 17.3413 241.706 16.0613 242.303 15.464C242.943 14.824 244.266 14.504 246.271 14.504ZM250.367 65H242.047V29.8H250.367V65ZM275.288 65.064L268.056 65C264.856 65 262.424 64.0613 260.76 62.184C259.139 60.3067 258.328 58.0667 258.328 55.464V16.872H266.648V33L276.568 28.392C280.365 28.392 283.16 29.416 284.952 31.464C286.531 33.2987 287.512 36.264 287.896 40.36C288.024 42.0667 288.088 44.1787 288.088 46.696C288.088 58.9413 283.821 65.064 275.288 65.064ZM268.76 57.896H272.856C277.464 57.896 279.768 54.1627 279.768 46.696C279.768 42.8987 279.405 40.2533 278.68 38.76C277.997 37.2667 276.483 36.52 274.136 36.52L266.648 40.552V54.952C266.648 56.6587 267.352 57.64 268.76 57.896ZM322.877 48.68H301.565C301.565 52.008 302.077 54.44 303.101 55.976C304.167 57.512 306.279 58.28 309.437 58.28C311.485 58.28 312.999 57.64 313.981 56.36C314.962 55.0373 315.453 53.7787 315.453 52.584H322.941C322.941 57.1493 321.703 60.4987 319.229 62.632C316.797 64.7653 313.554 65.832 309.501 65.832C305.49 65.832 302.375 65.256 300.157 64.104C295.591 61.7573 293.309 55.528 293.309 45.416C293.309 39.4 294.61 35.0053 297.213 32.232C299.815 29.416 303.783 28.008 309.117 28.008C318.375 28.008 323.005 33.1493 323.005 43.432C323.005 44.5413 322.962 46.2907 322.877 48.68ZM301.757 42.984H315.453C315.453 40.168 314.919 38.12 313.853 36.84C312.786 35.56 311.143 34.92 308.925 34.92C306.749 34.92 304.999 35.5813 303.677 36.904C302.397 38.184 301.757 40.2107 301.757 42.984Z" fill="#212738"/>
<line x1="343.5" y1="40.5" x2="375.5" y2="40.5" stroke="#212738" stroke-width="5" stroke-linecap="round"/>
<line x1="343.5" y1="51.5" x2="375.5" y2="51.5" stroke="#B77BFF" stroke-width="5" stroke-linecap="round"/>
<line x1="2.5" y1="-2.5" x2="28.0563" y2="-2.5" transform="matrix(0.999893 0.0146408 -0.00574816 0.999983 347.447 31)" stroke="#B77BFF" stroke-width="5" stroke-linecap="round"/>
<line x1="343.5" y1="62.5" x2="375.5" y2="62.5" stroke="#212738" stroke-width="5" stroke-linecap="round"/>
</svg>
